<svg width="313" height="313" viewBox="0 0 313 135" fill="none" xmlns="http://www.w3.org/2000/svg">
<path d="M0 66.9738V133.948L10.5586 133.913L21.1002 133.862V76.849V19.853L21.6127 19.7675C21.8861 19.7334 25.6619 19.6992 29.9844 19.7163L37.8436 19.7334L39.8426 20.2801C44.4385 21.5102 47.8555 23.5434 51.1017 26.9604C54.1258 30.1211 56.0564 33.897 57.0132 38.4416C57.4403 40.4748 57.4232 45.1219 56.9961 47.155C56.0222 51.6826 54.0574 55.3901 50.8967 58.6875C47.2917 62.4292 42.9179 64.7015 37.7753 65.5387C34.9221 66 30.8729 65.7779 28.2588 65.009C27.7634 64.8723 27.3192 64.7528 27.2679 64.7528C27.2166 64.7528 27.1654 69.3487 27.1654 74.9868V85.2037L28.1563 85.3233C30.5824 85.6137 31.898 85.6821 34.7683 85.665C41.1923 85.6479 47.1209 84.2298 53.0665 81.3424C66.5467 74.7305 75.448 61.9166 77.054 46.8133C77.2591 44.746 77.1224 38.6637 76.8149 36.7331C75.2601 26.9262 71.2622 18.9645 64.5819 12.3013C58.585 6.32153 51.5801 2.51154 43.0546 0.563837L40.9189 0.0854526L20.468 0.0341972L0 2.68817e-05V66.9738Z" fill="black"/>
<path d="M201.143 1.0764C200.836 1.65729 199.948 3.33164 199.162 4.78387C198.376 6.23611 197.333 8.2009 196.821 9.14059C196.035 10.627 192.345 17.5294 190.277 21.3565C189.901 22.057 189.03 23.7142 188.313 25.0298C186.006 29.3523 183.136 34.7341 181.923 36.9894C181.256 38.2024 180.402 39.8255 179.992 40.5773C179.599 41.329 178.745 42.9008 178.13 44.0626L176.985 46.1983L177.395 46.9671C177.634 47.3942 178.608 49.2053 179.565 50.9992C180.539 52.7761 181.718 54.98 182.196 55.8856C185.904 62.8392 188.893 68.3235 188.962 68.3235C189.03 68.3235 191.097 64.4965 194.942 57.2524C195.813 55.6122 196.736 53.8866 199.298 49.1198C200.255 47.3259 203.16 41.9099 205.756 37.0748C208.336 32.2397 213.838 21.9545 217.989 14.2149C222.141 6.4753 225.524 0.102544 225.524 0.0683736C225.524 0.0342033 220.159 3.29763e-05 213.616 3.29763e-05H201.69L201.143 1.0764Z" fill="black"/>
<path d="M88.1594 8.25216V15.8209L90.9442 17.0852C92.4648 17.7686 97.0949 19.8701 101.23 21.7494C105.364 23.6117 108.849 25.1835 108.969 25.2348C109.123 25.3031 109.174 22.7916 109.174 13.0018V0.683435H98.6667H88.1594V8.25216Z" fill="black"/>
<path d="M120.724 1.23016C120.877 1.53769 124.089 7.48332 127.848 14.437C134.409 26.6016 135.314 28.276 136.34 30.1553C136.596 30.6166 137.621 32.5131 138.595 34.3412C140.252 37.4165 154.638 64.0352 155.902 66.3758C156.21 66.9397 157.747 69.7587 159.302 72.6632L162.138 77.9083V106.013V134.118H173.073H184.007V103.912L183.99 73.7225L178.181 62.9588C173.038 53.4595 170.356 48.4706 167.981 44.0797C167.605 43.3792 165.196 38.92 162.634 34.1703C160.071 29.4207 157.474 24.5856 156.842 23.4067C156.21 22.2278 154.689 19.4258 153.459 17.1535C152.246 14.8983 150.811 12.2501 150.281 11.2591C149.768 10.2853 148.282 7.51749 146.984 5.12557L144.626 0.76886L132.53 0.717604L120.433 0.683434L120.724 1.23016Z" fill="black"/>
<path d="M247.906 2.34069C247 5.15974 205.193 133.606 205.09 133.862C205.005 134.084 206.423 134.118 216.332 134.118H227.694L233.981 114.556L240.286 94.9935L256.192 94.9593L272.098 94.908L268.664 84.4519L265.247 73.9958L256.209 73.9787C249.067 73.9787 247.205 73.9275 247.256 73.7566C247.308 73.6541 250.024 65.3166 253.304 55.2363C256.585 45.1561 259.301 37.0065 259.37 37.1261C259.421 37.2457 266.528 59.1147 275.173 85.7162L290.875 134.118H301.946C308.028 134.118 313 134.067 313 133.982C313 133.913 303.244 103.912 291.336 67.3155L269.655 0.76886L259.045 0.717604L248.435 0.683434L247.906 2.34069Z" fill="black"/>
<path d="M88.1594 78.5917V134.118H98.6667H109.174L109.14 83.2901L109.089 32.4447L103.621 29.9674C100.614 28.6006 95.9673 26.4991 93.2849 25.269C90.6025 24.0559 88.3644 23.065 88.296 23.065C88.2106 23.065 88.1594 48.0435 88.1594 78.5917Z" fill="black"/>
</svg>
