<?xml version="1.0" standalone="no"?>
<!DOCTYPE svg PUBLIC "-//W3C//DTD SVG 20010904//EN"
 "http://www.w3.org/TR/2001/REC-SVG-20010904/DTD/svg10.dtd">
<svg version="1.0" xmlns="http://www.w3.org/2000/svg"
 width="2084.000000pt" height="2085.000000pt" viewBox="0 0 2084.000000 2085.000000"
 preserveAspectRatio="xMidYMid meet">

<g transform="translate(0.000000,2085.000000) scale(0.100000,-0.100000)"
fill="#000000" stroke="none">
<path d="M1260 10430 l0 -3920 618 2 617 3 0 3337 0 3336 30 5 c16 2 237 4
490 3 l460 -1 117 -32 c269 -72 469 -191 659 -391 177 -185 290 -406 346 -672
25 -119 24 -391 -1 -510 -57 -265 -172 -482 -357 -675 -211 -219 -467 -352
-768 -401 -167 -27 -404 -14 -557 31 -29 8 -55 15 -58 15 -3 0 -6 -269 -6
-599 l0 -598 58 -7 c142 -17 219 -21 387 -20 376 1 723 84 1071 253 789 387
1310 1137 1404 2021 12 121 4 477 -14 590 -91 574 -325 1040 -716 1430 -351
350 -761 573 -1260 687 l-125 28 -1197 3 -1198 2 0 -3920z"/>
<path d="M13033 14287 c-18 -34 -70 -132 -116 -217 -46 -85 -107 -200 -137
-255 -46 -87 -262 -491 -383 -715 -22 -41 -73 -138 -115 -215 -135 -253 -303
-568 -374 -700 -39 -71 -89 -166 -113 -210 -23 -44 -73 -136 -109 -204 l-67
-125 24 -45 c14 -25 71 -131 127 -236 57 -104 126 -233 154 -286 217 -407 392
-728 396 -728 4 0 125 224 350 648 51 96 105 197 255 476 56 105 226 422 378
705 151 283 473 885 716 1338 243 453 441 826 441 828 0 2 -314 4 -697 4
l-698 0 -32 -63z"/>
<path d="M6420 13867 l0 -443 163 -74 c89 -40 360 -163 602 -273 242 -109 446
-201 453 -204 9 -4 12 143 12 716 l0 721 -615 0 -615 0 0 -443z"/>
<path d="M8326 14278 c9 -18 197 -366 417 -773 384 -712 437 -810 497 -920 15
-27 75 -138 132 -245 97 -180 939 -1738 1013 -1875 18 -33 108 -198 199 -368
l166 -307 0 -1645 0 -1645 640 0 640 0 0 1768 -1 1767 -340 630 c-301 556
-458 848 -597 1105 -22 41 -163 302 -313 580 -150 278 -302 561 -339 630 -37
69 -126 233 -198 366 -71 132 -155 287 -186 345 -30 57 -117 219 -193 359
l-138 255 -708 3 -708 2 17 -32z"/>
<path d="M15770 14213 c-53 -165 -2500 -7683 -2506 -7698 -5 -13 78 -15 658
-15 l665 0 368 1145 369 1145 931 2 931 3 -201 612 -200 612 -529 1 c-418 0
-527 3 -524 13 3 6 162 494 354 1084 192 590 351 1067 355 1060 3 -7 419
-1287 925 -2844 l919 -2833 648 0 c356 0 647 3 647 8 0 4 -571 1760 -1268
3902 l-1269 3895 -621 3 -621 2 -31 -97z"/>
<path d="M6420 9750 l0 -3250 615 0 615 0 -2 2975 -3 2976 -320 145 c-176 80
-448 203 -605 275 -157 71 -288 129 -292 129 -5 0 -8 -1462 -8 -3250z"/>
</g>
</svg>
